<svg id="arrow-left" xmlns="http://www.w3.org/2000/svg" width="37.991" height="22.165" viewBox="0 0 37.991 22.165">
  <path id="Path_314" data-name="Path 314" d="M4.964,10.589a1.583,1.583,0,0,0,0,2.241l8.379,8.376-8.38,8.377A1.585,1.585,0,0,0,7.2,31.824l9.5-9.5a1.583,1.583,0,0,0,0-2.241l-9.5-9.5a1.583,1.583,0,0,0-2.241,0Z" transform="translate(20.825 -10.123)" fill-rule="evenodd"/>
  <path id="Path_315" data-name="Path 315" d="M42.031,18.458a1.583,1.583,0,0,0-1.583-1.583H7.208a1.583,1.583,0,0,0,0,3.166h33.24A1.583,1.583,0,0,0,42.031,18.458Z" transform="translate(-5.625 -7.376)" fill-rule="evenodd"/>
</svg>
