<svg xmlns="http://www.w3.org/2000/svg" width="38" height="56.996" viewBox="0 0 38 56.996">
  <g id="Group_1052" data-name="Group 1052" transform="translate(-869 -273)">
    <g id="Component_2_3" data-name="Component 2 – 3" transform="translate(907 273) rotate(90)">
      <circle id="Ellipse_2" data-name="Ellipse 2" cx="19" cy="19" r="19" fill="#d8d8d8" opacity="0.78"/>
      <g id="arrow-left" transform="translate(19.004 7.917)">
        <path id="Path_314" data-name="Path 314" d="M16.7,10.589a1.583,1.583,0,0,1,0,2.241L8.322,21.206l8.38,8.377a1.585,1.585,0,0,1-2.241,2.241l-9.5-9.5a1.583,1.583,0,0,1,0-2.241l9.5-9.5a1.583,1.583,0,0,1,2.241,0Z" transform="translate(-4.498 -10.123)" fill-rule="evenodd"/>
        <path id="Path_315" data-name="Path 315" d="M5.625,18.458a1.583,1.583,0,0,1,1.583-1.583h33.24a1.583,1.583,0,0,1,0,3.166H7.208A1.583,1.583,0,0,1,5.625,18.458Z" transform="translate(-4.04 -7.376)" fill-rule="evenodd"/>
      </g>
    </g>
  </g>
</svg>
