<svg xmlns="http://www.w3.org/2000/svg" width="37.991" height="22.165" viewBox="0 0 37.991 22.165">
  <g id="arrow-left" transform="translate(-4.498 -10.123)">
    <path id="Path_314" data-name="Path 314" d="M16.7,10.589a1.583,1.583,0,0,1,0,2.241L8.322,21.206l8.38,8.377a1.585,1.585,0,0,1-2.241,2.241l-9.5-9.5a1.583,1.583,0,0,1,0-2.241l9.5-9.5a1.583,1.583,0,0,1,2.241,0Z" transform="translate(0)" fill="#fff" fill-rule="evenodd"/>
    <path id="Path_315" data-name="Path 315" d="M5.625,18.458a1.583,1.583,0,0,1,1.583-1.583h33.24a1.583,1.583,0,0,1,0,3.166H7.208A1.583,1.583,0,0,1,5.625,18.458Z" transform="translate(0.458 2.748)" fill="#fff" fill-rule="evenodd"/>
  </g>
</svg>
