<svg xmlns="http://www.w3.org/2000/svg" xmlns:xlink="http://www.w3.org/1999/xlink" width="58" height="58" viewBox="0 0 58 58">
  <defs>
    <filter id="Ellipse_27" x="0" y="0" width="58" height="58" filterUnits="userSpaceOnUse">
      <feOffset dy="3" input="SourceAlpha"/>
      <feGaussianBlur stdDeviation="3" result="blur"/>
      <feFlood flood-opacity="0.161"/>
      <feComposite operator="in" in2="blur"/>
      <feComposite in="SourceGraphic"/>
    </filter>
  </defs>
  <g id="Group_1052" data-name="Group 1052" transform="translate(-482 -471)">
    <g transform="matrix(1, 0, 0, 1, 482, 471)" filter="url(#Ellipse_27)">
      <circle id="Ellipse_27-2" data-name="Ellipse 27" cx="20" cy="20" r="20" transform="translate(9 6)" fill="#fff"/>
    </g>
    <path id="camera" d="M12.115,8.481a3.64,3.64,0,0,1,3.635,3.635,3.64,3.64,0,0,1-3.635,3.635,3.64,3.64,0,0,1-3.635-3.635,3.64,3.64,0,0,1,3.635-3.635ZM21,3.231a3.114,3.114,0,0,1,2.284.946,3.109,3.109,0,0,1,.946,2.284V17.769A3.231,3.231,0,0,1,21,21H3.231a3.114,3.114,0,0,1-2.284-.946A3.109,3.109,0,0,1,0,17.769V6.461A3.114,3.114,0,0,1,.946,4.177a3.109,3.109,0,0,1,2.284-.946H6.058L6.7,1.514A2.339,2.339,0,0,1,7.578.448,2.253,2.253,0,0,1,8.885,0h6.461a2.247,2.247,0,0,1,1.306.448,2.344,2.344,0,0,1,.877,1.066l.643,1.716ZM12.115,17.769a5.443,5.443,0,0,0,3.994-1.66,5.448,5.448,0,0,0,1.66-3.994,5.441,5.441,0,0,0-1.66-3.994,5.446,5.446,0,0,0-3.994-1.66,5.446,5.446,0,0,0-3.994,1.66,5.441,5.441,0,0,0-1.66,3.994,5.448,5.448,0,0,0,1.66,3.994A5.443,5.443,0,0,0,12.115,17.769Z" transform="translate(498.885 486)"/>
  </g>
</svg>
