<svg xmlns="http://www.w3.org/2000/svg" width="107" height="137" viewBox="0 0 107 137">
  <g id="Group_1062" data-name="Group 1062" transform="translate(-331 -22)">
    <g id="Group_1061" data-name="Group 1061">
      <g id="Group_1059" data-name="Group 1059" transform="translate(0 6)">
        <circle id="Ellipse_36" data-name="Ellipse 36" cx="53.5" cy="53.5" r="53.5" transform="translate(331 16)" fill="#09bc8a"/>
        <g id="Group_1058" data-name="Group 1058" transform="translate(733.555 -1982.118)">
          <path id="Path_751" data-name="Path 751" d="M-363.029,2053.283a5.392,5.392,0,0,0-1.883,3.131,6.076,6.076,0,0,0,1.826,5.723c.367.383.327.6-.114.839a7.122,7.122,0,0,0-3.938,5.959c-.07.749.071,1.516.073,2.275a.918.918,0,0,1-.238.63c-.84.74-1.708,1.448-2.572,2.159-1.241,1.021-2.488,2.034-3.731,3.052-.3.242-.585.492-.921.774.492.275.938.491,1.348.761a3.643,3.643,0,0,1,1.665,3.379.789.789,0,0,1-.527.559c-2.393.038-4.786.025-7.306.025.142-.417.235-.776.382-1.111q1.942-4.416,3.9-8.825c.27-.61.513-1.233.819-1.824a.784.784,0,0,1,.538-.355,2.207,2.207,0,0,0,1.986-1.541c.427-1.112.07-2.185-.021-3.291-.145-1.766-.1-3.548-.114-5.323a10.244,10.244,0,0,1,.832-3.775,10.358,10.358,0,0,1,3.492-4.669c.147-.11.278-.243.416-.366l-.063-.145c-.857,0-1.713.006-2.57,0a17.7,17.7,0,0,1-9.755-2.967,12.59,12.59,0,0,1-5.819-8.818,14.757,14.757,0,0,1,.09-5.681c.395-1.7.852-3.393,1.282-5.089l.227.011c.36.838.722,1.675,1.079,2.514a34.657,34.657,0,0,0,4.69,8.063,25.608,25.608,0,0,0,6.456,5.849,19.355,19.355,0,0,0,7.073,2.758,44.245,44.245,0,0,0,5.348.506,26.688,26.688,0,0,0,7-.891,35.857,35.857,0,0,0,8.833-3.31,22.686,22.686,0,0,0,6.2-4.377,2.986,2.986,0,0,0,.891-2.132c-.008-1.734.017-3.469-.007-5.2a13.848,13.848,0,0,1,1.3-6.45,11.4,11.4,0,0,1,6.6-5.988c.016-.006.039.01.147.041v.678c0,1.569.015,3.139-.009,4.708-.007.481.137.652.633.645,1.755-.025,3.51-.01,5.265-.01h.768c-.162.571-.3,1.059-.44,1.547-.528,1.862-.36,1.546,1.112,1.549,2.21.006,4.419.019,6.628-.012a.727.727,0,0,1,.853.608,9.77,9.77,0,0,1,.052,6.519,6.07,6.07,0,0,1-4.787,4.036c-2.148.435-3.8-.471-5.27-1.861a2.21,2.21,0,0,0-1.839-.619c-.423.04-.622.22-.382.695a27.222,27.222,0,0,1,2.384,7.043,19.308,19.308,0,0,1,.346,2.589,19.271,19.271,0,0,1,0,2.985,12.912,12.912,0,0,1-2.868,7.347c-.409.483-.832.955-1.355,1.555.4-.061.7-.115.994-.149,1.111-.129,2.222-.247,3.332-.378a5.63,5.63,0,0,0,1.016-.179c.37-.116.6-.091.649.349a6.873,6.873,0,0,1,.1.716c.007,3.18-.008,6.36.01,9.54.01,1.8-.2,1.429-1.434,1.465a3.966,3.966,0,0,1-2.342-.716,2.575,2.575,0,0,1-1.163-2.16c-.05-.833-.011-1.672-.011-2.536l-5.828,2c-1.834.629-3.663,1.271-5.507,1.87a1.087,1.087,0,0,1-.8-.143,12.882,12.882,0,0,1-4.18-4.193,17.911,17.911,0,0,1-2.457-6.555c-.788.307-1.539.654-2.323.893a27.615,27.615,0,0,1-5.919,1.279,17.112,17.112,0,0,1-6.374-.415c-2.011-.61-3.728-1.672-4.074-3.961a13.25,13.25,0,0,1,.155-2.906A4.908,4.908,0,0,1-363.029,2053.283Zm31.228,7.275a1.287,1.287,0,0,0,.02-.192c-.312-2.646,1.184-3.853,3.233-3.531a3.372,3.372,0,0,0,4-2.643.974.974,0,0,0-.32-.882,2.825,2.825,0,0,1-1.648-2.3,3.615,3.615,0,0,0-3.605-2.787c-1.076-.038-1.141-.148-1.214-1.216-.039-.581-.162-1.155-.257-1.806-.355.166-.649.287-.928.437a5.534,5.534,0,0,0-2.395,3.115,8.156,8.156,0,0,0-.725,2.475,11.838,11.838,0,0,0,1.284,5.569A9.914,9.914,0,0,0-331.8,2060.558Z" fill="#414141" fill-rule="evenodd"/>
          <path id="Path_752" data-name="Path 752" d="M-184.131,2421.708a33.018,33.018,0,0,0-3.84,6.267c-.042.092-.1.178-.138.271-.415.946-.415.951.577,1.167a4.948,4.948,0,0,1,3.958,3.537c.06.191.066.4.117.594.087.33-.063.429-.366.428-2.289,0-4.579.011-6.868-.023a.779.779,0,0,1-.56-.486q-.788-4.011-1.485-8.041a.742.742,0,0,1,.371-.6,16.192,16.192,0,0,0,4.486-3.2,1.557,1.557,0,0,1,1.05-.378C-185.96,2421.324-185.1,2421.532-184.131,2421.708Z" transform="translate(-168.923 -351.421)" fill="#414141" fill-rule="evenodd"/>
          <path id="Path_753" data-name="Path 753" d="M27.486,2424.224c.824-.388,1.536-.729,2.253-1.06.7-.323,1.4-.636,2.17-.986.279.976.563,1.955.837,2.937q.585,2.1,1.156,4.2a.958.958,0,0,0,1.067.784,4.264,4.264,0,0,1,4.194,4.638,1.544,1.544,0,0,1-.282.052c-2.31,0-4.62.012-6.929-.013a.774.774,0,0,1-.595-.354c-1-2.469-1.957-4.951-2.927-7.431-.22-.564-.45-1.124-.652-1.694C27.66,2424.958,27.588,2424.6,27.486,2424.224Z" transform="translate(-361.859 -352.239)" fill="#414141" fill-rule="evenodd"/>
        </g>
      </g>
      <text id="dogdog.ge" transform="translate(335 153)" fill="#414141" font-size="20" font-family="GilroyGEO-Heavy, Gilroy GEO" font-weight="800"><tspan x="0" y="0">dogdog</tspan><tspan y="0" fill="#09bc8a">.ge</tspan></text>
    </g>
  </g>
</svg>
