<svg id="filter" xmlns="http://www.w3.org/2000/svg" width="33.669" height="19.125" viewBox="0 0 33.669 19.125">
  <path id="Path_535" data-name="Path 535" d="M33.188,11.813H2.813a1.688,1.688,0,0,1,0-3.375H33.188a1.688,1.688,0,0,1,0,3.375Z" transform="translate(-1.166 -8.438)" fill="#09bc8a"/>
  <path id="Path_536" data-name="Path 536" d="M27.563,19.688H8.438a1.688,1.688,0,0,1,0-3.375H27.563a1.688,1.688,0,0,1,0,3.375Z" transform="translate(-1.166 -8.438)" fill="#09bc8a"/>
  <path id="Path_537" data-name="Path 537" d="M20.813,27.563H15.188a1.688,1.688,0,0,1,0-3.375h5.625a1.688,1.688,0,0,1,0,3.375Z" transform="translate(-1.166 -8.438)" fill="#09bc8a"/>
</svg>
