<svg id="filter-circle" xmlns="http://www.w3.org/2000/svg" width="19.125" height="19.125" viewBox="0 0 19.125 19.125">
  <path id="Path_538" data-name="Path 538" d="M9.563,17.93A8.367,8.367,0,1,0,1.2,9.563,8.367,8.367,0,0,0,9.563,17.93Zm0,1.2A9.563,9.563,0,1,0,0,9.563,9.563,9.563,0,0,0,9.563,19.125Z" fill="#09bc8a" fill-rule="evenodd"/>
  <path id="Path_539" data-name="Path 539" d="M11.531,19.02a.6.6,0,0,1,.6-.6h1.2a.6.6,0,1,1,0,1.2h-1.2A.6.6,0,0,1,11.531,19.02ZM9.141,15.434a.6.6,0,0,1,.6-.6h5.977a.6.6,0,1,1,0,1.2H9.738A.6.6,0,0,1,9.141,15.434ZM6.75,11.848a.6.6,0,0,1,.6-.6H18.105a.6.6,0,0,1,0,1.2H7.348A.6.6,0,0,1,6.75,11.848Z" transform="translate(-3.164 -5.273)" fill="#09bc8a" fill-rule="evenodd"/>
</svg>
