<svg xmlns="http://www.w3.org/2000/svg" width="30.001" height="21" viewBox="0 0 30.001 21">
  <g id="menu-right" transform="translate(-3 -7.5)">
    <path id="Path_47" data-name="Path 47" d="M33,27.008A1.492,1.492,0,0,1,31.508,28.5H19.493a1.493,1.493,0,0,1,0-2.985H31.508A1.491,1.491,0,0,1,33,27.007Z" fill="#09bc8a"/>
    <path id="Path_48" data-name="Path 48" d="M33,18a1.492,1.492,0,0,1-1.492,1.492H4.492a1.493,1.493,0,0,1,0-2.985H31.507A1.492,1.492,0,0,1,33,18Z" fill="#09bc8a"/>
    <path id="Path_49" data-name="Path 49" d="M31.508,10.485a1.493,1.493,0,1,0,0-2.985H13.492a1.492,1.492,0,1,0,0,2.985H31.507Z" fill="#09bc8a"/>
  </g>
</svg>
