<svg id="search" xmlns="http://www.w3.org/2000/svg" width="15.001" height="15" viewBox="0 0 15.001 15">
  <path id="Path_312" data-name="Path 312" d="M23.112,23.11a.938.938,0,0,1,1.327,0l3.609,3.609a.938.938,0,0,1-1.325,1.327l-3.609-3.609a.938.938,0,0,1,0-1.327Z" transform="translate(-13.322 -13.32)" fill-rule="evenodd"/>
  <path id="Path_313" data-name="Path 313" d="M6.094,11.25A5.156,5.156,0,1,0,.938,6.094,5.156,5.156,0,0,0,6.094,11.25Zm6.094-5.156A6.094,6.094,0,1,1,6.094,0,6.094,6.094,0,0,1,12.188,6.094Z" transform="translate(0 0)" fill-rule="evenodd"/>
</svg>
